<svg width="14" height="15" viewBox="0 0 14 15" fill="none" xmlns="http://www.w3.org/2000/svg">
<path d="M6.61765 9C6.40931 9 6.2348 8.928 6.09412 8.784C5.95294 8.6405 5.88235 8.4625 5.88235 8.25C5.88235 8.0375 5.95294 7.85925 6.09412 7.71525C6.2348 7.57175 6.40931 7.5 6.61765 7.5C6.82598 7.5 7.00074 7.57175 7.14191 7.71525C7.2826 7.85925 7.35294 8.0375 7.35294 8.25C7.35294 8.4625 7.2826 8.6405 7.14191 8.784C7.00074 8.928 6.82598 9 6.61765 9ZM3.67647 9C3.46814 9 3.29338 8.928 3.15221 8.784C3.01152 8.6405 2.94118 8.4625 2.94118 8.25C2.94118 8.0375 3.01152 7.85925 3.15221 7.71525C3.29338 7.57175 3.46814 7.5 3.67647 7.5C3.8848 7.5 4.05956 7.57175 4.20074 7.71525C4.34142 7.85925 4.41176 8.0375 4.41176 8.25C4.41176 8.4625 4.34142 8.6405 4.20074 8.784C4.05956 8.928 3.8848 9 3.67647 9ZM9.55882 9C9.35049 9 9.17598 8.928 9.03529 8.784C8.89412 8.6405 8.82353 8.4625 8.82353 8.25C8.82353 8.0375 8.89412 7.85925 9.03529 7.71525C9.17598 7.57175 9.35049 7.5 9.55882 7.5C9.76716 7.5 9.94167 7.57175 10.0824 7.71525C10.2235 7.85925 10.2941 8.0375 10.2941 8.25C10.2941 8.4625 10.2235 8.6405 10.0824 8.784C9.94167 8.928 9.76716 9 9.55882 9ZM6.61765 12C6.40931 12 6.2348 11.928 6.09412 11.784C5.95294 11.6405 5.88235 11.4625 5.88235 11.25C5.88235 11.0375 5.95294 10.8595 6.09412 10.716C6.2348 10.572 6.40931 10.5 6.61765 10.5C6.82598 10.5 7.00074 10.572 7.14191 10.716C7.2826 10.8595 7.35294 11.0375 7.35294 11.25C7.35294 11.4625 7.2826 11.6405 7.14191 11.784C7.00074 11.928 6.82598 12 6.61765 12ZM3.67647 12C3.46814 12 3.29338 11.928 3.15221 11.784C3.01152 11.6405 2.94118 11.4625 2.94118 11.25C2.94118 11.0375 3.01152 10.8595 3.15221 10.716C3.29338 10.572 3.46814 10.5 3.67647 10.5C3.8848 10.5 4.05956 10.572 4.20074 10.716C4.34142 10.8595 4.41176 11.0375 4.41176 11.25C4.41176 11.4625 4.34142 11.6405 4.20074 11.784C4.05956 11.928 3.8848 12 3.67647 12ZM9.55882 12C9.35049 12 9.17598 11.928 9.03529 11.784C8.89412 11.6405 8.82353 11.4625 8.82353 11.25C8.82353 11.0375 8.89412 10.8595 9.03529 10.716C9.17598 10.572 9.35049 10.5 9.55882 10.5C9.76716 10.5 9.94167 10.572 10.0824 10.716C10.2235 10.8595 10.2941 11.0375 10.2941 11.25C10.2941 11.4625 10.2235 11.6405 10.0824 11.784C9.94167 11.928 9.76716 12 9.55882 12ZM1.47059 15C1.06618 15 0.719853 14.8533 0.431618 14.5597C0.143872 14.2657 0 13.9125 0 13.5V3C0 2.5875 0.143872 2.2345 0.431618 1.941C0.719853 1.647 1.06618 1.5 1.47059 1.5H2.20588V0H3.67647V1.5H9.55882V0H11.0294V1.5H11.7647C12.1691 1.5 12.5154 1.647 12.8037 1.941C13.0914 2.2345 13.2353 2.5875 13.2353 3V13.5C13.2353 13.9125 13.0914 14.2657 12.8037 14.5597C12.5154 14.8533 12.1691 15 11.7647 15H1.47059ZM1.47059 13.5H11.7647V6H1.47059V13.5ZM1.47059 4.5H11.7647V3H1.47059V4.5Z" fill="#73839C"/>
</svg>
