<svg width="25" height="25" viewBox="0 0 25 25" fill="none" xmlns="http://www.w3.org/2000/svg">
<rect width="25" height="25" rx="5" fill="#EDFEF8"/>
<path d="M15.3035 6.33926C15.1948 6.33926 15.0905 6.35577 14.9892 6.38016C14.8281 5.74126 14.2513 5.26784 13.5625 5.26784C13.3508 5.26784 13.1499 5.31329 12.968 5.39376C12.6509 5.14791 12.2538 5 11.8214 5C11.303 5 10.8338 5.21046 10.4944 5.5504C10.446 5.54442 10.3983 5.53569 10.3482 5.53569C9.80903 5.53569 9.35784 5.89217 9.20383 6.38052C8.78102 6.48084 8.43495 6.76568 8.24207 7.14282H16.5296C16.3228 6.67023 15.8523 6.33926 15.3035 6.33926L15.3035 6.33926Z" fill="#545762"/>
<path d="M17.7142 8.75013V8.21442C17.7142 7.91858 17.4743 7.67871 17.1785 7.67871H7.53571C7.23987 7.67871 7 7.91858 7 8.21442V8.75013C7 9.04596 7.23987 9.28583 7.53571 9.28583H7.71747C7.11074 11.2182 6.73599 14.4678 7.23496 17.6398C7.27287 17.881 7.26593 18.1283 7.19167 18.3609C7.06707 18.7508 7.10666 19.2245 7.15078 19.5052C7.17314 19.6477 7.30659 19.747 7.44996 19.733C7.69797 19.7088 7.89301 19.6493 8.04751 19.5756C8.72253 19.7324 10.1909 20.0002 12.357 20.0002C14.5231 20.0002 15.9916 19.7324 16.6666 19.5756C16.8211 19.6493 17.0161 19.7089 17.2641 19.733C17.4076 19.747 17.541 19.6475 17.5633 19.5052C17.6074 19.2245 17.647 18.7508 17.5224 18.3609C17.4482 18.1283 17.4412 17.881 17.4791 17.6398C17.9781 14.4678 17.6035 11.2184 16.9966 9.28583H17.1784C17.4742 9.28583 17.7141 9.04596 17.7141 8.75013H17.7142ZM12.3571 17.5893C10.7299 17.5893 9.41069 16.2701 9.41069 14.6429C9.41069 13.0157 10.7299 11.6965 12.3571 11.6965C13.9843 11.6965 15.3035 13.0157 15.3035 14.6429C15.3035 16.2701 13.9843 17.5893 12.3571 17.5893Z" fill="#545762"/>
<path d="M11.8119 13.7243C11.2934 14.0321 11.0193 14.6181 10.8803 15.0533C10.6549 15.265 10.5388 15.4314 10.5287 15.4461C10.4455 15.5682 10.4772 15.7338 10.5988 15.8172C10.6448 15.849 10.6977 15.8642 10.7497 15.8642C10.835 15.8642 10.9187 15.8237 10.9707 15.7485C10.9715 15.7473 10.9924 15.7197 11.0232 15.682C11.4435 15.7945 12.268 15.9375 12.9022 15.561C13.7898 15.034 13.9641 13.6885 13.9641 13.6885C13.9641 13.6885 12.6993 13.1974 11.8117 13.7243H11.8119Z" fill="#545762"/>
</svg>
