<svg width="25" height="25" viewBox="0 0 25 25" fill="none" xmlns="http://www.w3.org/2000/svg">
<rect width="25" height="25" rx="5" fill="#EDF0FE"/>
<path d="M18.5369 19.6132C18.7841 19.366 18.9231 19.0308 18.9236 18.6813C18.9232 18.3316 18.7842 17.9964 18.537 17.7491C18.2897 17.502 17.9547 17.3629 17.605 17.3625H15.6005V16.6392C15.6174 15.788 16.1388 15.6704 16.1353 15.6703C17.6306 15.1606 16.9286 13.7565 16.2876 13.1405C16.1992 13.0534 16.0573 13.0534 15.9689 13.1405C15.6416 13.4358 14.6802 14.7232 15.6506 15.4302C15.5427 15.519 15.4507 15.6257 15.3788 15.7456C15.1763 15.3017 14.2239 15.0624 14.1905 15.0818C14.1195 15.0717 14.0478 15.0956 13.997 15.1463C13.9462 15.197 13.9223 15.2687 13.9323 15.3398C13.9922 15.7248 14.157 16.0859 14.4084 16.3835C14.5964 16.5872 14.872 16.6865 15.1467 16.6493V17.3625H10.3807C10.3834 16.6552 10.2833 15.845 10.9621 15.8118C12.5332 16.3255 12.8842 14.413 12.8599 13.7387C12.859 13.6147 12.7587 13.5143 12.6345 13.5135C11.868 13.4924 10.0341 13.8856 10.5727 15.4425C10.5302 15.4603 10.4891 15.4812 10.4496 15.505C10.4192 15.3108 10.3261 15.1318 10.1846 14.9953C9.88711 14.7437 9.52611 14.5791 9.14109 14.5194C9.06987 14.5081 8.99752 14.5319 8.94697 14.5833C8.896 14.6342 8.87219 14.7062 8.88293 14.7773C8.94272 15.1623 9.10747 15.5234 9.35894 15.821C9.52774 15.9994 9.7636 16.0988 10.0092 16.0954C9.89572 16.3741 9.93138 17.0413 9.92682 17.3625H8.30663C6.56638 17.4171 6.56254 19.9441 8.30663 19.9998H17.605C17.9547 19.9994 18.2897 19.8603 18.5369 19.6132Z" fill="#545762"/>
<path d="M14.1406 5.40567C14.1401 5.18183 13.9588 5.00054 13.735 5H12.1123C11.8886 5.00054 11.7073 5.18183 11.7066 5.40567V7.02837H14.1406V5.40567ZM11.3009 10.2738H14.5463C15.0842 10.2736 15.6 10.0597 15.9805 9.67939C16.3608 9.29907 16.5745 8.78329 16.5747 8.24539C16.5741 8.02155 16.3929 7.84026 16.169 7.83972H14.1406C13.0347 7.84062 10.7755 7.83899 9.67823 7.83972C9.45457 7.84026 9.27328 8.02155 9.27256 8.24539C9.27274 8.78329 9.48662 9.29908 9.86693 9.67939C10.2472 10.0597 10.763 10.2736 11.3009 10.2738ZM12.518 11.6576V11.8903C12.5223 12.1113 12.7027 12.288 12.9236 12.288C13.1448 12.288 13.3249 12.1113 13.3293 11.8903V11.6576C13.325 11.4365 13.1448 11.2597 12.9236 11.2597C12.7027 11.2597 12.5223 11.4365 12.518 11.6576ZM16.6111 10.7617C17.1279 11.4528 17.8763 10.7036 17.1846 10.1876C17.0253 10.0344 16.7728 10.0369 16.6165 10.1932C16.4602 10.3497 16.4579 10.6023 16.6111 10.7617ZM8.78459 11.0449C9.0903 11.046 9.58092 10.5183 9.23663 10.1882C8.96932 9.9375 8.69279 10.1181 8.4977 10.3524C8.38433 10.4694 8.35137 10.6424 8.41367 10.7929C8.47596 10.9434 8.62178 11.0424 8.78459 11.0449ZM14.7853 10.9993C14.3818 11.3954 15.1367 12.1397 15.5246 11.7371C15.9281 11.3412 15.1734 10.5967 14.7853 10.9993ZM10.4881 10.9989C10.2535 11.1936 10.073 11.4698 10.3229 11.7371C10.5902 11.9876 10.8667 11.8072 11.0618 11.5729C11.2147 11.4135 11.2119 11.1614 11.056 11.0051C10.8999 10.849 10.6476 10.8463 10.4881 10.9989Z" fill="#545762"/>
</svg>
